<?xml version="1.0" standalone="no"?>
<!DOCTYPE svg PUBLIC "-//W3C//DTD SVG 20010904//EN"
 "http://www.w3.org/TR/2001/REC-SVG-20010904/DTD/svg10.dtd">
<svg version="1.0" xmlns="http://www.w3.org/2000/svg"
 width="400.000000pt" height="400.000000pt" viewBox="0 0 400.000000 400.000000"
 preserveAspectRatio="xMidYMid meet">
<metadata>
Created by potrace 1.16, written by Peter Selinger 2001-2019
</metadata>
<g transform="translate(0.000000,400.000000) scale(0.100000,-0.100000)"
fill="#000000" stroke="none">
<path d="M576 2517 c-34 -20 -66 -55 -66 -71 0 -8 -4 -18 -10 -21 -6 -3 -10
-52 -10 -111 l0 -104 -110 0 c-67 0 -110 -4 -110 -10 0 -5 -7 -10 -15 -10 -9
0 -27 -11 -40 -25 l-25 -24 0 -231 0 -231 25 -24 c13 -14 29 -25 35 -25 5 0
10 -4 10 -10 0 -5 17 -10 39 -10 l39 0 -5 -44 c-3 -26 -1 -46 6 -50 6 -4 11
-16 11 -27 0 -14 7 -19 26 -19 18 0 46 20 97 70 l71 70 118 0 c72 0 118 4 118
10 0 6 5 10 10 10 6 0 22 11 35 25 23 22 25 31 25 125 l0 101 80 -80 80 -81 0
-103 0 -103 33 -12 c42 -15 66 -15 100 1 24 11 27 17 27 69 l0 56 50 4 50 3 0
-59 c0 -44 4 -62 18 -72 20 -16 92 -19 92 -4 0 6 7 10 15 10 13 0 15 28 15
190 l0 190 -80 0 c-73 0 -80 -2 -80 -20 0 -11 -4 -20 -10 -20 -5 0 -10 -9 -10
-20 0 -11 -3 -20 -6 -20 -11 0 -34 29 -34 43 0 9 -6 18 -12 20 -9 4 -2 16 20
35 17 16 32 39 32 51 0 11 5 21 10 21 6 0 10 80 10 219 0 136 -4 222 -10 226
-5 3 -10 13 -10 21 0 16 -34 52 -68 72 -30 17 -558 16 -586 -1z m572 -266 c1
-110 -1 -178 -8 -185 -5 -5 -10 -29 -10 -53 l0 -43 -69 0 -70 0 -3 -50 -3 -49
-40 49 -40 49 -143 1 c-110 0 -147 3 -158 14 -11 12 -14 56 -14 224 0 115 3
212 7 215 4 4 128 6 277 5 l271 -3 3 -174z m-658 -200 c0 -33 5 -63 10 -66 6
-3 10 -14 10 -24 0 -10 12 -30 26 -45 25 -25 32 -26 130 -26 63 0 104 -4 104
-10 0 -5 -4 -10 -10 -10 -5 0 -10 -16 -10 -35 0 -19 -4 -35 -10 -35 -5 0 -10
-15 -10 -33 0 -50 -13 -57 -116 -57 l-91 0 -47 -41 -46 -41 0 29 c0 24 -6 31
-33 41 -18 7 -47 12 -64 12 -65 0 -63 -6 -63 194 0 128 4 186 12 194 8 8 47
12 110 12 l98 0 0 -59z"/>
<path d="M738 2306 c-24 -20 -28 -31 -28 -80 0 -31 5 -56 10 -56 6 0 10 -7 10
-16 0 -18 67 -84 85 -84 6 0 17 -9 25 -20 20 -27 49 -25 85 6 17 14 42 33 56
41 37 22 69 86 69 138 0 63 -35 95 -106 95 -33 0 -54 -5 -57 -12 -4 -10 -7
-10 -18 0 -23 21 -101 15 -131 -12z"/>
<path d="M1835 2340 c-3 -5 -18 -10 -32 -10 -16 0 -35 -11 -49 -27 -23 -27
-24 -35 -24 -166 0 -133 1 -139 25 -162 13 -14 31 -25 39 -25 8 0 18 -4 21
-10 3 -5 44 -10 91 -10 49 0 84 4 84 10 0 6 11 10 23 10 50 0 57 24 57 186 0
148 0 151 -25 172 -14 12 -34 22 -44 22 -11 0 -23 5 -26 10 -3 6 -35 10 -70
10 -35 0 -67 -4 -70 -10z"/>
<path d="M1370 2136 c0 -192 0 -194 23 -200 78 -21 117 2 117 68 0 44 1 46 30
46 29 0 30 -2 30 -46 0 -54 18 -73 65 -74 74 0 75 1 75 115 0 78 -3 104 -14
108 -10 4 -12 18 -8 52 5 45 -7 83 -35 113 -8 8 -52 12 -147 12 l-136 0 0
-194z"/>
<path d="M2110 2144 c0 -166 2 -188 18 -200 21 -16 253 -19 283 -4 17 10 19
22 19 120 l0 110 -70 0 -70 0 0 -50 c0 -43 -3 -50 -20 -50 -19 0 -20 7 -20
130 l0 130 -70 0 -70 0 0 -186z"/>
<path d="M2450 2142 c0 -231 -13 -216 175 -208 164 7 178 7 304 0 70 -4 113
-1 133 7 28 11 29 14 26 68 l-3 56 -37 3 -38 3 0 70 0 69 40 0 40 0 0 60 0 60
-150 0 -150 0 0 -60 0 -60 40 0 40 0 0 -70 0 -70 -29 0 c-17 0 -33 -6 -38 -12
-5 -8 -10 11 -13 47 l-5 60 -63 3 c-74 3 -92 -9 -92 -62 0 -20 -4 -36 -10 -36
-6 0 -10 50 -10 130 l0 130 -80 0 -80 0 0 -188z"/>
<path d="M3110 2144 c0 -209 2 -213 70 -213 57 0 70 16 70 93 0 37 4 66 10 66
6 0 10 -6 10 -13 0 -8 9 -22 20 -32 13 -12 20 -31 20 -53 0 -42 22 -61 70 -61
68 0 70 4 70 213 l0 186 -70 0 -70 0 0 -40 c0 -22 -3 -40 -8 -40 -4 0 -18 18
-32 40 l-25 40 -67 0 -68 0 0 -186z"/>
<path d="M3513 2305 c-22 -23 -23 -33 -23 -165 0 -136 1 -142 25 -165 13 -14
35 -25 49 -25 14 0 28 -4 31 -10 8 -13 171 -13 196 0 17 10 19 22 19 120 l0
110 -70 0 -70 0 0 -50 c0 -43 -3 -50 -20 -50 -18 0 -20 7 -20 70 l0 70 80 0
80 0 0 60 0 60 -127 -1 c-122 0 -129 -1 -150 -24z"/>
<path d="M1545 1900 c-3 -5 -15 -10 -26 -10 -32 0 -69 -30 -69 -56 0 -12 -4
-26 -10 -29 -6 -3 -10 -50 -10 -105 0 -55 4 -102 10 -105 6 -3 10 -19 10 -34
0 -20 7 -31 28 -40 15 -8 35 -17 44 -22 25 -12 178 -11 178 1 0 6 10 10 21 10
12 0 32 12 45 28 23 25 24 35 24 155 0 127 -6 156 -40 184 -8 7 -25 13 -37 13
-12 0 -25 5 -28 10 -3 6 -35 10 -70 10 -35 0 -67 -4 -70 -10z"/>
<path d="M1810 1776 c0 -66 4 -117 10 -121 6 -3 10 -15 10 -26 0 -10 5 -19 10
-19 6 0 10 -11 10 -24 0 -14 5 -28 10 -31 6 -3 10 -14 10 -24 0 -22 52 -41
116 -41 59 0 104 18 104 43 0 9 5 17 10 17 6 0 10 9 10 19 0 11 5 23 10 26 6
3 10 17 10 31 0 13 5 24 10 24 6 0 10 47 10 120 l0 120 -70 0 -70 0 0 -89 c0
-50 -4 -93 -10 -96 -5 -3 -10 -15 -10 -26 0 -11 -4 -17 -10 -14 -6 3 -10 48
-10 100 0 51 -3 100 -6 109 -5 13 -22 16 -80 16 l-74 0 0 -114z"/>
<path d="M2170 1830 l0 -60 40 0 40 0 0 -70 0 -70 -40 0 -40 0 0 -56 c0 -77
10 -83 138 -84 131 0 162 13 162 68 -1 46 -20 72 -54 72 -26 0 -26 1 -26 70
l0 70 34 0 c37 0 46 12 46 60 0 60 1 60 -156 60 l-144 0 0 -60z"/>
<path d="M2490 1704 c0 -166 2 -188 18 -200 24 -19 240 -19 265 0 13 10 17 28
17 70 l0 56 -37 0 c-31 1 -35 3 -20 11 20 12 24 98 5 117 -9 9 -5 12 20 12
l32 0 0 60 0 60 -150 0 -150 0 0 -186z"/>
<path d="M2833 1865 c-20 -21 -23 -35 -23 -105 0 -87 10 -110 49 -110 11 0 23
-4 26 -10 4 -6 -10 -10 -34 -10 l-41 0 0 -56 c0 -42 4 -60 18 -70 20 -16 188
-19 197 -4 3 6 17 10 31 10 29 0 54 21 54 44 0 9 5 16 10 16 6 0 10 28 10 65
0 37 -4 65 -10 65 -5 0 -10 5 -10 11 0 16 -27 39 -47 39 -10 0 -25 5 -33 10
-11 7 -2 10 33 10 l47 0 0 60 0 60 -127 -1 c-122 0 -129 -1 -150 -24z"/>
</g>
</svg>
